HIERARCHY
ROOT Hips
{
	OFFSET 54.879601 -18.508512 86.312500
	CHANNELS 6 Xposition Yposition Zposition Xrotation Yrotation Zrotation
	JOINT spine
	{
		OFFSET 0.000000 -0.393702 6.846367
		CHANNELS 3 Xrotation Yrotation Zrotation
		JOINT spine1
		{
			OFFSET 0.000000 -0.000002 9.496208
			CHANNELS 3 Xrotation Yrotation Zrotation
			JOINT spine2
			{
				OFFSET 0.000000 -0.000002 9.099091
				CHANNELS 3 Xrotation Yrotation Zrotation
				JOINT Neck
				{
					OFFSET 0.000000 -1.113785 23.361206
					CHANNELS 3 Xrotation Yrotation Zrotation
					JOINT Head
					{
						OFFSET 0.000000 0.000000 7.058014
						CHANNELS 3 Xrotation Yrotation Zrotation
						End Site
						{
							OFFSET 0.000000 5.634187 17.084396
						}
					}
				}
				JOINT RightShoulder
				{
					OFFSET -3.831360 0.533491 9.826309
					CHANNELS 3 Xrotation Yrotation Zrotation
					JOINT RightArm
					{
						OFFSET 0.000000 -0.000002 12.888092
						CHANNELS 3 Xrotation Yrotation Zrotation
						JOINT RightArmRoll
						{
							OFFSET 0.000000 -0.000002 6.506165
							CHANNELS 3 Xrotation Yrotation Zrotation
							JOINT RightForeArm
							{
								OFFSET 0.000000 -0.000004 18.950104
								CHANNELS 3 Xrotation Yrotation Zrotation
								JOINT RightForeArmRoll
								{
									OFFSET 0.000000 0.000000 7.300934
									CHANNELS 3 Xrotation Yrotation Zrotation
									JOINT RightHand
									{
										OFFSET 0.000000 -0.000004 14.651398
										CHANNELS 3 Xrotation Yrotation Zrotation
										End Site
										{
											OFFSET 0.000000 0.000000 0.100006
										}
									}
								}
							}
						}
					}
				}
				JOINT LeftShoulder
				{
					OFFSET 3.831360 0.533491 9.826309
					CHANNELS 3 Xrotation Yrotation Zrotation
					JOINT LeftArm
					{
						OFFSET 0.000000 -0.000002 12.888092
						CHANNELS 3 Xrotation Yrotation Zrotation
						JOINT LeftArmRoll
						{
							OFFSET 0.000000 -0.000002 6.506165
							CHANNELS 3 Xrotation Yrotation Zrotation
							JOINT LeftForeArm
							{
								OFFSET 0.000000 -0.000004 18.950104
								CHANNELS 3 Xrotation Yrotation Zrotation
								JOINT LeftForeArmRoll
								{
									OFFSET 0.000000 0.000000 7.300919
									CHANNELS 3 Xrotation Yrotation Zrotation
									JOINT LeftHand
									{
										OFFSET 0.000000 -0.000004 14.651398
										CHANNELS 3 Xrotation Yrotation Zrotation
										End Site
										{
											OFFSET 0.000000 0.000000 0.100006
										}
									}
								}
							}
						}
					}
				}
			}
		}
	}
	JOINT RightUpLeg
	{
		OFFSET -6.068371 0.933477 -1.112778
		CHANNELS 3 Xrotation Yrotation Zrotation
		JOINT RightUpLegRoll
		{
			OFFSET 0.000000 -0.000004 17.179596
			CHANNELS 3 Xrotation Yrotation Zrotation
			JOINT RightLeg
			{
				OFFSET 0.000000 0.000004 -21.274300
				CHANNELS 3 Xrotation Yrotation Zrotation
				JOINT RightLegRoll
				{
					OFFSET 0.000000 -0.000004 21.343903
					CHANNELS 3 Xrotation Yrotation Zrotation
					JOINT RightFoot
					{
						OFFSET 0.000000 -0.000002 17.765198
						CHANNELS 3 Xrotation Yrotation Zrotation
						JOINT RightToeBase
						{
							OFFSET 0.000000 -0.000004 14.850792
							CHANNELS 3 Xrotation Yrotation Zrotation
							End Site
							{
								OFFSET 0.006294 0.829004 7.192139
							}
						}
					}
				}
			}
		}
	}
	JOINT LeftUpLeg
	{
		OFFSET 6.068371 0.933477 -1.112778
		CHANNELS 3 Xrotation Yrotation Zrotation
		JOINT LeftUpLegRoll
		{
			OFFSET 0.000000 -0.000004 17.179703
			CHANNELS 3 Xrotation Yrotation Zrotation
			JOINT LeftLeg
			{
				OFFSET 0.000000 -0.000004 21.274200
				CHANNELS 3 Xrotation Yrotation Zrotation
				JOINT LeftLegRoll
				{
					OFFSET 0.000000 -0.000002 21.541199
					CHANNELS 3 Xrotation Yrotation Zrotation
					JOINT LeftFoot
					{
						OFFSET 0.000000 -0.000004 17.567902
						CHANNELS 3 Xrotation Yrotation Zrotation
						JOINT LeftToeBase
						{
							OFFSET 0.000000 -0.000002 14.850800
							CHANNELS 3 Xrotation Yrotation Zrotation
							End Site
							{
								OFFSET -0.028210 0.829002 7.192123
							}
						}
					}
				}
			}
		}
	}
}
MOTION
Frames: 4
Frame Time: 0.041667
59.105301 -30.291817 91.485588 7.279266 2.022268 -4.300387 -2.457854 -1.148363 0.337503 -0.907302 -2.307502 0.636929 0.738281 -2.299689 0.664536 -1.986916 22.560689 -6.349056 14.844945 -22.951140 -6.091321 -12.130022 -31.191165 -12.828487 -130.015369 -147.407449 -76.103819 -0.000004 0.000008 -0.000004 0.540870 4.072352 0.815544 0.000001 0.000007 -3.013438 -5.000239 -7.998703 0.000170 -18.680038 54.752897 22.035184 -126.117995 169.688933 64.796632 -0.000016 0.000005 0.000006 2.671184 -14.760648 -3.951689 0.000006 -0.000017 3.005120 -5.000170 7.998724 -0.000152 -14.330135 -178.258867 -2.938997 -179.999991 0.000005 -0.792994 168.833670 -2.698025 -0.377365 -0.000001 0.000001 0.055486 65.522312 6.853414 2.443916 25.456959 -7.358977 0.000004 -16.083922 174.081291 -1.766058 -0.000004 -0.000005 -0.808252 -22.641538 2.985683 0.996529 -0.000005 -0.000003 -0.374037 74.101125 -6.695183 -2.336567 25.456875 7.347713 0.000008 
59.125198 -30.297621 91.437187 7.233058 2.044063 -4.228614 -2.469462 -1.132757 0.353196 -0.930414 -2.276851 0.668577 0.715151 -2.268664 0.695814 -1.496076 22.406821 -6.536366 14.678205 -22.941900 -6.180736 -12.127585 -31.027408 -12.813706 -129.929527 -148.066480 -76.048822 -0.000005 0.000007 -0.000004 0.478274 4.120317 0.822780 -0.000000 0.000005 -3.014672 -5.000237 -7.998702 0.000171 -18.221707 54.304942 21.470882 -125.773098 170.326968 64.317043 -0.000016 0.000004 0.000007 3.219783 -14.938843 -3.914232 0.000004 -0.000021 3.005090 -5.000170 7.998726 -0.000153 -14.314570 -178.279112 -2.873810 -179.999991 0.000005 -0.794005 168.739960 -2.770710 -0.388397 -0.000001 0.000002 0.062159 65.528569 6.850324 2.450853 25.456964 -7.358993 0.000003 -16.186975 174.052645 -1.775482 -0.000005 -0.000005 -0.807831 -22.944569 2.965071 1.007459 -0.000006 -0.000003 -0.379751 74.136779 -6.695113 -2.336231 25.456962 7.347555 -0.000001 
59.084599 -30.294724 91.395988 7.190727 2.065168 -4.155221 -2.482822 -1.116671 0.369871 -0.956988 -2.245287 0.702186 0.688557 -2.236710 0.729041 -0.992184 22.235493 -6.728074 14.502290 -22.917269 -6.276515 -12.128199 -30.865543 -12.803184 -129.844696 -148.722260 -76.004692 -0.000004 0.000007 -0.000006 0.415314 4.166813 0.829880 0.000001 0.000003 -3.015969 -5.000240 -7.998700 0.000169 -17.756115 53.835295 20.896368 -125.412559 170.947914 63.832387 -0.000018 0.000006 0.000006 3.813284 -15.107118 -3.865684 0.000007 -0.000022 3.005061 -5.000171 7.998721 -0.000151 -14.303746 -178.294534 -2.804016 -179.999991 0.000006 -0.795999 168.652465 -2.850274 -0.399739 -0.000001 0.000002 0.069176 65.538684 6.847203 2.457739 25.456960 -7.359011 0.000003 -16.288049 174.026841 -1.783515 -0.000004 -0.000004 -0.807346 -23.231577 2.944884 1.017748 -0.000006 -0.000003 -0.385216 74.170862 -6.695128 -2.335802 25.456957 7.347421 -0.000006 
59.091904 -30.317017 91.357178 7.151775 2.085398 -4.080831 -2.497391 -1.100275 0.387006 -0.985970 -2.213153 0.736716 0.659555 -2.204165 0.763185 -0.482533 22.051296 -6.920298 14.321861 -22.880184 -6.375809 -12.131044 -30.702103 -12.795599 -129.755931 -149.374366 -75.965145 -0.000003 0.000010 -0.000003 0.352782 4.212629 0.836955 -0.000000 0.000005 -3.017310 -5.000240 -7.998698 0.000168 -17.291396 53.347954 20.321744 -125.040847 171.558041 63.346186 -0.000018 0.000006 0.000005 4.439134 -15.267623 -3.808001 0.000005 -0.000022 3.005029 -5.000169 7.998722 -0.000151 -14.296550 -178.307074 -2.729822 -179.999991 0.000006 -0.796996 168.571309 -2.934736 -0.412998 -0.000001 0.000002 0.076443 65.551996 6.844005 2.464512 25.456964 -7.359031 0.000010 -16.385856 174.002921 -1.789911 -0.000004 -0.000004 -0.806826 -23.500963 2.925330 1.027347 -0.000006 -0.000003 -0.390399 74.203127 -6.695225 -2.335191 25.456950 7.347275 -0.000007 
